# xmcd
# 
# Track frame offsets:
#     150
#     19304
#     36948
#     53025
#     73751
#     97430
#     115833
#     136734
#     152191
#     163346
# 
# Disc length: 2503
# 
# Revision: 0
# Processed by: cddbd v1.5.2PL0 Copyright (c) Steve Scherf et al.
# Submitted via: fre:ac v1.1beta1pre4
# 
DISCID=9009c50a
DTITLE=Michael Martin Murphey - Flowing Free Forever
DYEAR=1976
DGENRE=Western
TTITLE0=Flowing Free Forever
TTITLE1=A North Wind and a New Moon
TTITLE2=Cherokee Fiddle
TTITLE3=See How All the Horses Come Dancing
TTITLE4=Yellow House
TTITLE5=Changing Woman
TTITLE6=High Country Caravan (aka Song for Stephen Stills)
TTITLE7=Running Wide Open
TTITLE8=Our Lady of Santa Fe
TTITLE9=The Wandering Minstrel
EXTD=
EXTT0=
EXTT1=
EXTT2=
EXTT3=
EXTT4=
EXTT5=
EXTT6=
EXTT7=
EXTT8=
EXTT9=
PLAYORDER=
